<svg xmlns="http://www.w3.org/2000/svg" width="900" height="700" viewBox="0 0 900 700">
<defs>
 <linearGradient id="g" x1="0" y1="0" x2="1" y2="1"><stop offset="0" stop-color="#e8e5dc"/><stop offset="1" stop-color="#ffffff" stop-opacity=".22"/></linearGradient>
 <filter id="shadow"><feDropShadow dx="0" dy="12" stdDeviation="14" flood-opacity=".18"/></filter>
</defs>
<rect width="900" height="700" fill="#eeeae3"/>
<rect x="95" y="55" width="710" height="590" rx="10" fill="url(#g)" filter="url(#shadow)"/>
<path d="M467,35 Q548,273 629,46" fill="none" stroke="#ffffff" stroke-opacity=".22" stroke-width="2"/><path d="M98,62 Q147,363 197,-27" fill="none" stroke="#ffffff" stroke-opacity=".22" stroke-width="2"/><path d="M442,304 Q471,336 501,298" fill="none" stroke="#ffffff" stroke-opacity=".22" stroke-width="2"/><path d="M538,184 Q551,98 564,254" fill="none" stroke="#ffffff" stroke-opacity=".22" stroke-width="2"/><path d="M316,273 Q311,366 306,243" fill="none" stroke="#ffffff" stroke-opacity=".22" stroke-width="2"/><path d="M102,7 Q45,85 -12,49" fill="none" stroke="#ffffff" stroke-opacity=".22" stroke-width="2"/><path d="M425,363 Q353,280 282,454" fill="none" stroke="#ffffff" stroke-opacity=".22" stroke-width="2"/><path d="M349,121 Q437,203 525,26" fill="none" stroke="#ffffff" stroke-opacity=".22" stroke-width="2"/><path d="M448,170 Q391,21 334,124" fill="none" stroke="#ffffff" stroke-opacity=".22" stroke-width="2"/><path d="M436,21 Q444,209 452,99" fill="none" stroke="#ffffff" stroke-opacity=".22" stroke-width="2"/>
<rect x="95" y="520" width="710" height="125" fill="#111" opacity=".76"/>
<text x="125" y="558" font-family="Arial,sans-serif" font-size="27" font-weight="700" fill="#fff">Astaria Ice Белый</text>
<text x="125" y="592" font-family="Arial,sans-serif" font-size="19" fill="#fff" opacity=".92">М-Квадрат</text>
<text x="125" y="621" font-family="Arial,sans-serif" font-size="17" fill="#fff" opacity=".82">450 × 450 × 8 мм</text>
</svg>