<svg xmlns="http://www.w3.org/2000/svg" width="900" height="700" viewBox="0 0 900 700">
<defs>
 <linearGradient id="g" x1="0" y1="0" x2="1" y2="1"><stop offset="0" stop-color="#e8e5dc"/><stop offset="1" stop-color="#ffffff" stop-opacity=".22"/></linearGradient>
 <filter id="shadow"><feDropShadow dx="0" dy="12" stdDeviation="14" flood-opacity=".18"/></filter>
</defs>
<rect width="900" height="700" fill="#eeeae3"/>
<rect x="95" y="55" width="710" height="590" rx="10" fill="url(#g)" filter="url(#shadow)"/>
<path d="M447,122 Q373,21 299,41" fill="none" stroke="#ffffff" stroke-opacity=".22" stroke-width="2"/><path d="M163,336 Q186,313 209,345" fill="none" stroke="#ffffff" stroke-opacity=".22" stroke-width="2"/><path d="M283,11 Q365,213 447,-28" fill="none" stroke="#ffffff" stroke-opacity=".22" stroke-width="2"/><path d="M526,252 Q587,325 649,165" fill="none" stroke="#ffffff" stroke-opacity=".22" stroke-width="2"/><path d="M22,16 Q6,18 -9,-83" fill="none" stroke="#ffffff" stroke-opacity=".22" stroke-width="2"/><path d="M191,119 Q261,29 332,101" fill="none" stroke="#ffffff" stroke-opacity=".22" stroke-width="2"/><path d="M410,116 Q379,62 348,131" fill="none" stroke="#ffffff" stroke-opacity=".22" stroke-width="2"/><path d="M402,4 Q475,365 548,35" fill="none" stroke="#ffffff" stroke-opacity=".22" stroke-width="2"/><path d="M245,111 Q250,396 256,22" fill="none" stroke="#ffffff" stroke-opacity=".22" stroke-width="2"/><path d="M516,183 Q427,334 339,188" fill="none" stroke="#ffffff" stroke-opacity=".22" stroke-width="2"/>
<rect x="95" y="520" width="710" height="125" fill="#111" opacity=".76"/>
<text x="125" y="558" font-family="Arial,sans-serif" font-size="27" font-weight="700" fill="#fff">Террацио Белый</text>
<text x="125" y="592" font-family="Arial,sans-serif" font-size="19" fill="#fff" opacity=".92">Нефрит-Керамика</text>
<text x="125" y="621" font-family="Arial,sans-serif" font-size="17" fill="#fff" opacity=".82">600 × 200 × 9 мм</text>
</svg>