<svg xmlns="http://www.w3.org/2000/svg" width="900" height="700" viewBox="0 0 900 700">
<defs>
 <linearGradient id="g" x1="0" y1="0" x2="1" y2="1"><stop offset="0" stop-color="#9ba0a3"/><stop offset="1" stop-color="#ffffff" stop-opacity=".22"/></linearGradient>
 <filter id="shadow"><feDropShadow dx="0" dy="12" stdDeviation="14" flood-opacity=".18"/></filter>
</defs>
<rect width="900" height="700" fill="#eeeae3"/>
<rect x="95" y="55" width="710" height="590" rx="10" fill="url(#g)" filter="url(#shadow)"/>
<path d="M138,115 Q226,385 315,107" fill="none" stroke="#ffffff" stroke-opacity=".22" stroke-width="2"/><path d="M3,343 Q-38,306 -79,341" fill="none" stroke="#ffffff" stroke-opacity=".22" stroke-width="2"/><path d="M261,157 Q312,199 364,93" fill="none" stroke="#ffffff" stroke-opacity=".22" stroke-width="2"/><path d="M381,206 Q345,348 309,160" fill="none" stroke="#ffffff" stroke-opacity=".22" stroke-width="2"/><path d="M388,40 Q324,332 260,0" fill="none" stroke="#ffffff" stroke-opacity=".22" stroke-width="2"/><path d="M591,253 Q593,30 596,272" fill="none" stroke="#ffffff" stroke-opacity=".22" stroke-width="2"/><path d="M323,8 Q376,380 429,-57" fill="none" stroke="#ffffff" stroke-opacity=".22" stroke-width="2"/><path d="M115,384 Q90,277 66,354" fill="none" stroke="#ffffff" stroke-opacity=".22" stroke-width="2"/><path d="M20,61 Q10,346 1,136" fill="none" stroke="#ffffff" stroke-opacity=".22" stroke-width="2"/><path d="M166,345 Q81,291 -3,248" fill="none" stroke="#ffffff" stroke-opacity=".22" stroke-width="2"/>
<rect x="95" y="520" width="710" height="125" fill="#111" opacity=".76"/>
<text x="125" y="558" font-family="Arial,sans-serif" font-size="27" font-weight="700" fill="#fff">Прожетто Серый Светлый</text>
<text x="125" y="592" font-family="Arial,sans-serif" font-size="19" fill="#fff" opacity=".92">М-Квадрат</text>
<text x="125" y="621" font-family="Arial,sans-serif" font-size="17" fill="#fff" opacity=".82">600 × 600 × 10 мм</text>
</svg>