<svg xmlns="http://www.w3.org/2000/svg" width="900" height="700" viewBox="0 0 900 700">
<defs>
 <linearGradient id="g" x1="0" y1="0" x2="1" y2="1"><stop offset="0" stop-color="#d8c5a4"/><stop offset="1" stop-color="#ffffff" stop-opacity=".22"/></linearGradient>
 <filter id="shadow"><feDropShadow dx="0" dy="12" stdDeviation="14" flood-opacity=".18"/></filter>
</defs>
<rect width="900" height="700" fill="#eeeae3"/>
<rect x="95" y="55" width="710" height="590" rx="10" fill="url(#g)" filter="url(#shadow)"/>
<path d="M207,225 Q188,202 169,298" fill="none" stroke="#ffffff" stroke-opacity=".22" stroke-width="2"/><path d="M550,307 Q619,126 689,340" fill="none" stroke="#ffffff" stroke-opacity=".22" stroke-width="2"/><path d="M476,331 Q498,117 520,395" fill="none" stroke="#ffffff" stroke-opacity=".22" stroke-width="2"/><path d="M157,20 Q194,112 232,-31" fill="none" stroke="#ffffff" stroke-opacity=".22" stroke-width="2"/><path d="M514,225 Q603,197 693,185" fill="none" stroke="#ffffff" stroke-opacity=".22" stroke-width="2"/><path d="M521,77 Q567,314 614,147" fill="none" stroke="#ffffff" stroke-opacity=".22" stroke-width="2"/><path d="M145,116 Q150,96 156,160" fill="none" stroke="#ffffff" stroke-opacity=".22" stroke-width="2"/><path d="M9,344 Q2,369 -5,382" fill="none" stroke="#ffffff" stroke-opacity=".22" stroke-width="2"/><path d="M290,379 Q328,228 367,328" fill="none" stroke="#ffffff" stroke-opacity=".22" stroke-width="2"/><path d="M460,261 Q412,44 365,252" fill="none" stroke="#ffffff" stroke-opacity=".22" stroke-width="2"/>
<rect x="95" y="520" width="710" height="125" fill="#111" opacity=".76"/>
<text x="125" y="558" font-family="Arial,sans-serif" font-size="27" font-weight="700" fill="#fff">Лия Бежевый</text>
<text x="125" y="592" font-family="Arial,sans-serif" font-size="19" fill="#fff" opacity=".92">Нефрит-Керамика</text>
<text x="125" y="621" font-family="Arial,sans-serif" font-size="17" fill="#fff" opacity=".82">600 × 300 × 9 мм</text>
</svg>