<svg xmlns="http://www.w3.org/2000/svg" width="900" height="700" viewBox="0 0 900 700">
<defs>
 <linearGradient id="g" x1="0" y1="0" x2="1" y2="1"><stop offset="0" stop-color="#9ba0a3"/><stop offset="1" stop-color="#ffffff" stop-opacity=".22"/></linearGradient>
 <filter id="shadow"><feDropShadow dx="0" dy="12" stdDeviation="14" flood-opacity=".18"/></filter>
</defs>
<rect width="900" height="700" fill="#eeeae3"/>
<rect x="95" y="55" width="710" height="590" rx="10" fill="url(#g)" filter="url(#shadow)"/>
<path d="M490,305 Q438,42 386,379" fill="none" stroke="#ffffff" stroke-opacity=".22" stroke-width="2"/><path d="M67,202 Q69,227 71,163" fill="none" stroke="#ffffff" stroke-opacity=".22" stroke-width="2"/><path d="M29,326 Q18,21 8,304" fill="none" stroke="#ffffff" stroke-opacity=".22" stroke-width="2"/><path d="M387,38 Q371,138 356,121" fill="none" stroke="#ffffff" stroke-opacity=".22" stroke-width="2"/><path d="M49,21 Q103,257 157,-71" fill="none" stroke="#ffffff" stroke-opacity=".22" stroke-width="2"/><path d="M519,339 Q430,262 341,328" fill="none" stroke="#ffffff" stroke-opacity=".22" stroke-width="2"/><path d="M577,244 Q565,59 553,253" fill="none" stroke="#ffffff" stroke-opacity=".22" stroke-width="2"/><path d="M43,373 Q56,261 70,339" fill="none" stroke="#ffffff" stroke-opacity=".22" stroke-width="2"/><path d="M32,133 Q84,320 136,104" fill="none" stroke="#ffffff" stroke-opacity=".22" stroke-width="2"/><path d="M147,340 Q192,80 238,240" fill="none" stroke="#ffffff" stroke-opacity=".22" stroke-width="2"/>
<rect x="95" y="520" width="710" height="125" fill="#111" opacity=".76"/>
<text x="125" y="558" font-family="Arial,sans-serif" font-size="27" font-weight="700" fill="#fff">Моногамма Серый</text>
<text x="125" y="592" font-family="Arial,sans-serif" font-size="19" fill="#fff" opacity=".92">Нефрит-Керамика</text>
<text x="125" y="621" font-family="Arial,sans-serif" font-size="17" fill="#fff" opacity=".82">600 × 200 × 9 мм</text>
</svg>