<svg xmlns="http://www.w3.org/2000/svg" width="900" height="700" viewBox="0 0 900 700">
<defs>
 <linearGradient id="g" x1="0" y1="0" x2="1" y2="1"><stop offset="0" stop-color="#e8e5dc"/><stop offset="1" stop-color="#ffffff" stop-opacity=".22"/></linearGradient>
 <filter id="shadow"><feDropShadow dx="0" dy="12" stdDeviation="14" flood-opacity=".18"/></filter>
</defs>
<rect width="900" height="700" fill="#eeeae3"/>
<rect x="95" y="55" width="710" height="590" rx="10" fill="url(#g)" filter="url(#shadow)"/>
<path d="M404,348 Q321,203 239,287" fill="none" stroke="#ffffff" stroke-opacity=".22" stroke-width="2"/><path d="M28,52 Q28,288 29,138" fill="none" stroke="#ffffff" stroke-opacity=".22" stroke-width="2"/><path d="M245,226 Q230,5 215,178" fill="none" stroke="#ffffff" stroke-opacity=".22" stroke-width="2"/><path d="M559,181 Q626,88 693,197" fill="none" stroke="#ffffff" stroke-opacity=".22" stroke-width="2"/><path d="M585,250 Q633,1 682,241" fill="none" stroke="#ffffff" stroke-opacity=".22" stroke-width="2"/><path d="M534,286 Q510,139 487,328" fill="none" stroke="#ffffff" stroke-opacity=".22" stroke-width="2"/><path d="M463,98 Q488,77 513,31" fill="none" stroke="#ffffff" stroke-opacity=".22" stroke-width="2"/><path d="M312,286 Q277,38 243,248" fill="none" stroke="#ffffff" stroke-opacity=".22" stroke-width="2"/><path d="M153,155 Q164,104 176,136" fill="none" stroke="#ffffff" stroke-opacity=".22" stroke-width="2"/><path d="M502,373 Q543,11 584,288" fill="none" stroke="#ffffff" stroke-opacity=".22" stroke-width="2"/>
<rect x="95" y="520" width="710" height="125" fill="#111" opacity=".76"/>
<text x="125" y="558" font-family="Arial,sans-serif" font-size="27" font-weight="700" fill="#fff">CONCRETE LIGHT GREY</text>
<text x="125" y="592" font-family="Arial,sans-serif" font-size="19" fill="#fff" opacity=".92">Казахстан</text>
<text x="125" y="621" font-family="Arial,sans-serif" font-size="17" fill="#fff" opacity=".82">600 × 600 × 9,5 мм</text>
</svg>