<svg xmlns="http://www.w3.org/2000/svg" width="900" height="700" viewBox="0 0 900 700">
<defs>
 <linearGradient id="g" x1="0" y1="0" x2="1" y2="1"><stop offset="0" stop-color="#9ba0a3"/><stop offset="1" stop-color="#ffffff" stop-opacity=".22"/></linearGradient>
 <filter id="shadow"><feDropShadow dx="0" dy="12" stdDeviation="14" flood-opacity=".18"/></filter>
</defs>
<rect width="900" height="700" fill="#eeeae3"/>
<rect x="95" y="55" width="710" height="590" rx="10" fill="url(#g)" filter="url(#shadow)"/>
<path d="M304,16 Q268,371 233,86" fill="none" stroke="#ffffff" stroke-opacity=".22" stroke-width="2"/><path d="M94,68 Q123,316 153,97" fill="none" stroke="#ffffff" stroke-opacity=".22" stroke-width="2"/><path d="M0,124 Q-10,93 -19,135" fill="none" stroke="#ffffff" stroke-opacity=".22" stroke-width="2"/><path d="M420,149 Q367,203 315,133" fill="none" stroke="#ffffff" stroke-opacity=".22" stroke-width="2"/><path d="M561,246 Q564,41 567,174" fill="none" stroke="#ffffff" stroke-opacity=".22" stroke-width="2"/><path d="M352,363 Q323,390 295,281" fill="none" stroke="#ffffff" stroke-opacity=".22" stroke-width="2"/><path d="M402,162 Q490,384 578,196" fill="none" stroke="#ffffff" stroke-opacity=".22" stroke-width="2"/><path d="M83,328 Q50,262 17,302" fill="none" stroke="#ffffff" stroke-opacity=".22" stroke-width="2"/><path d="M339,397 Q328,263 317,363" fill="none" stroke="#ffffff" stroke-opacity=".22" stroke-width="2"/><path d="M334,52 Q404,287 474,101" fill="none" stroke="#ffffff" stroke-opacity=".22" stroke-width="2"/>
<rect x="95" y="520" width="710" height="125" fill="#111" opacity=".76"/>
<text x="125" y="558" font-family="Arial,sans-serif" font-size="27" font-weight="700" fill="#fff">Mono smoke Серый</text>
<text x="125" y="592" font-family="Arial,sans-serif" font-size="19" fill="#fff" opacity=".92">Нефрит-Керамика</text>
<text x="125" y="621" font-family="Arial,sans-serif" font-size="17" fill="#fff" opacity=".82">600 × 300 × 9 мм</text>
</svg>